<svg width="382" height="372" viewBox="0 0 382 372" fill="none" xmlns="http://www.w3.org/2000/svg">
<g clip-path="url(#clip0_319_2)">
<path d="M235.117 100.193H187.494C185.377 96.2486 182.177 92.8837 187.494 84.9599C187.494 79.6999 189.534 74.6452 193.183 70.8601C196.833 67.075 201.808 64.8548 207.061 64.6671C217.362 61.5858 224.781 67.8424 226.797 77.8654L235.117 100.193Z" fill="#2F2E41"/>
<path d="M140.695 108.47C141.561 108.565 142.395 108.85 143.14 109.303C143.884 109.756 144.52 110.367 145.003 111.092C145.486 111.818 145.804 112.641 145.935 113.502C146.065 114.364 146.006 115.245 145.76 116.081L182.719 146.843L172.45 150.801L137.933 120.053C136.557 119.546 135.414 118.552 134.721 117.258C134.028 115.965 133.833 114.462 134.173 113.034C134.514 111.606 135.366 110.353 136.568 109.512C137.77 108.671 139.238 108.3 140.695 108.47Z" fill="#FFB6B6"/>
<path d="M183.506 160.127C175.317 160.129 143.364 126.622 141.97 125.155L141.615 124.782L153.443 121.616L181.818 142.205L192.161 124.687C193.305 122.755 195.018 121.224 197.064 120.304C199.111 119.385 201.392 119.12 203.595 119.548C205.544 119.929 207.352 120.838 208.822 122.176C210.291 123.513 211.366 125.228 211.929 127.135C212.492 129.041 212.522 131.065 212.016 132.987C211.509 134.91 210.486 136.656 209.057 138.037L189.493 156.936C187.989 158.386 186.158 159.451 184.155 160.041C183.944 160.101 183.725 160.129 183.506 160.127Z" fill="#49C98A"/>
<path d="M184.136 155.487L188.105 170.457L221.074 177.765L218.937 170.151L225.083 163.601L218.327 152.433L184.136 155.487Z" fill="#FFB8B8"/>
<path d="M181.22 359.677H174.778L171.713 334.813H181.22V359.677Z" fill="#FFB8B8"/>
<path d="M184.619 370.846H180L179.176 366.481L177.064 370.846H164.812C164.225 370.846 163.653 370.658 163.18 370.31C162.707 369.961 162.357 369.471 162.183 368.91C162.008 368.349 162.017 367.746 162.208 367.191C162.4 366.635 162.764 366.155 163.247 365.822L173.031 359.06V354.647L183.322 355.262L184.619 370.846Z" fill="#2F2E41"/>
<path d="M261.952 354.201L255.967 356.585L243.93 334.619L252.763 331.1L261.952 354.201Z" fill="#FFB8B8"/>
<path d="M269.238 363.319L264.946 365.029L262.567 361.279L262.218 366.116L250.835 370.65C250.29 370.867 249.689 370.905 249.121 370.756C248.552 370.608 248.047 370.281 247.677 369.825C247.307 369.368 247.093 368.805 247.066 368.218C247.038 367.631 247.199 367.051 247.525 366.561L254.116 356.658L252.485 352.558L262.273 349.321L269.238 363.319Z" fill="#2F2E41"/>
<path d="M224.95 165.34L224.338 164.809C224.158 164.654 206.085 149.397 183.546 163.642L182.816 164.103L178.2 143.777C177.663 141.44 177.785 139 178.553 136.728C179.321 134.457 180.705 132.444 182.55 130.913L198.821 117.365L204.529 114.51L203.804 109.796C203.665 108.869 203.847 107.923 204.32 107.114C204.794 106.305 205.529 105.683 206.405 105.351L215.273 102.023C216.264 101.646 217.363 101.672 218.336 102.095C219.309 102.518 220.077 103.305 220.478 104.288L221.418 106.564L223.43 105.855C224.65 105.41 225.946 105.21 227.244 105.268C228.542 105.326 229.815 105.641 230.991 106.193C232.17 106.766 233.216 107.579 234.061 108.581C234.907 109.583 235.533 110.752 235.898 112.011C239.358 123.72 238.43 136.289 233.29 147.362L224.95 165.34Z" fill="#49C98A"/>
<path d="M183.704 348.255H170.38L174.063 285.611L171.371 243.149L171.376 243.115L181.416 182.248C182.206 177.449 184.34 172.972 187.571 169.338L187.694 169.2L221.294 177.504L224.672 185.213C236.207 192.079 239.85 230.796 240 232.445L244.884 280.71L256.83 339.863L248.417 344.396L248.276 344.115L221.717 291.265L204.945 235.53L194.204 285.692L183.704 348.255Z" fill="#2F2E41"/>
<path d="M237.448 215.799C236.834 215.181 236.362 214.435 236.067 213.615C235.771 212.795 235.659 211.92 235.738 211.052C235.817 210.184 236.085 209.343 236.524 208.59C236.963 207.837 237.561 207.189 238.277 206.692L228.789 159.532L239.266 162.898L246.861 208.514C247.615 209.773 247.882 211.265 247.61 212.708C247.339 214.15 246.548 215.443 245.388 216.34C244.227 217.238 242.778 217.679 241.315 217.579C239.852 217.479 238.476 216.846 237.448 215.799V215.799Z" fill="#FFB6B6"/>
<path d="M223.439 116.02L229.94 111.109C229.94 111.109 235.674 110.703 236.69 121.052C237.706 131.402 239.791 151.571 239.791 151.571L249.739 197.678L235.969 200.703L225.314 150.945L218.922 136.169L223.439 116.02Z" fill="#49C98A"/>
<path d="M203.993 99.6493C212.752 99.6493 219.853 92.5434 219.853 83.7779C219.853 75.0124 212.752 67.9066 203.993 67.9066C195.234 67.9066 188.134 75.0124 188.134 83.7779C188.134 92.5434 195.234 99.6493 203.993 99.6493Z" fill="#FFB8B8"/>
<path d="M213.049 68.3728C210.31 65.6597 206.611 64.1398 202.758 64.1444H199.705C195.819 64.1444 192.092 65.6893 189.344 68.4393C186.596 71.1893 185.052 74.9191 185.052 78.8082V78.8082C187.718 81.1212 200.626 80.6462 208.252 80.0302C207.706 87.9813 200.956 95.7944 202.758 100.193H233.285V97.1379C235.898 83.7145 226.14 72.5174 213.049 68.3728Z" fill="#2F2E41"/>
<path d="M75.4589 275.242C80.854 275.242 85.2276 270.865 85.2276 265.466C85.2276 260.067 80.854 255.69 75.4589 255.69C70.0638 255.69 65.6902 260.067 65.6902 265.466C65.6902 270.865 70.0638 275.242 75.4589 275.242Z" fill="#F2F2F2"/>
<path d="M316.319 313.429C320.703 313.429 324.256 309.873 324.256 305.486C324.256 301.099 320.703 297.543 316.319 297.543C311.936 297.543 308.382 301.099 308.382 305.486C308.382 309.873 311.936 313.429 316.319 313.429Z" fill="#F2F2F2"/>
<path d="M279.076 147.85C283.46 147.85 287.013 144.294 287.013 139.907C287.013 135.521 283.46 131.964 279.076 131.964C274.692 131.964 271.139 135.521 271.139 139.907C271.139 144.294 274.692 147.85 279.076 147.85Z" fill="#F2F2F2"/>
<path d="M116.577 69.4906C121.258 58.6386 125.042 46.3398 122.109 34.4958C119.814 25.2268 113.237 16.3409 103.613 13.9714C98.6605 12.8257 93.4698 13.3335 88.8332 15.4172C84.1967 17.501 80.369 21.0462 77.935 25.5113C75.5488 30.0282 74.598 35.1666 75.2097 40.2389C75.8376 45.2772 78.029 50.8246 82.6434 53.4651C86.8559 55.8756 92.7294 55.2059 95.1413 50.6317C97.1688 46.7864 96.3796 41.8456 93.7176 38.518C90.4697 34.4581 85.2136 32.6276 80.2664 31.7226C75.0661 30.766 69.7441 30.6712 64.5131 31.4417C54.2239 32.9678 44.4985 38.2091 38.6151 46.9456C33.1778 55.0196 31.13 65.7177 34.7477 74.9424C38.3544 84.1387 46.6212 90.6346 55.7608 93.8363C66.975 97.7648 79.2953 96.365 90.507 93.1846C93.4588 92.3473 96.3706 91.377 99.2536 90.3282C100.353 89.9284 99.8782 88.1564 98.7667 88.5607C87.8419 92.5348 76.1215 95.5006 64.4252 94.0055C55.3935 92.851 46.4969 88.5795 40.6625 81.4684C37.8003 77.9995 35.8873 73.8463 35.1109 69.4154C34.3981 64.896 34.7875 60.2712 36.2461 55.9349C37.7521 51.452 40.2067 47.3469 43.4424 43.8996C46.6781 40.4524 50.6187 37.7441 54.9954 35.9596C59.5611 34.0724 64.4225 33.0025 69.3581 32.7986C74.2678 32.5209 79.1887 33.091 83.9052 34.4842C88.1093 35.7879 92.585 38.3318 93.9765 42.7957C95.0851 46.3522 94.2526 51.0889 90.4083 52.5858C89.2861 52.9764 88.092 53.1158 86.9101 52.9943C85.7282 52.8728 84.5873 52.4932 83.568 51.8824C81.4569 50.5673 79.7943 48.642 78.8001 46.361C76.861 41.9816 76.3582 37.1001 77.3638 32.417C78.3694 27.7338 80.8316 23.4899 84.3972 20.2942C88.0127 17.2419 92.5255 15.4549 97.2492 15.2054C101.82 14.968 106.335 16.2926 110.054 18.9619C113.688 21.6625 116.562 25.2581 118.397 29.3992C122.972 39.2744 121.464 50.5245 118.105 60.5228C117.189 63.2487 116.134 65.9257 114.996 68.5655C114.533 69.6372 116.111 70.5718 116.577 69.4906Z" fill="#F2F2F2"/>
<path d="M117.892 105.081C128.345 105.081 136.819 96.6008 136.819 86.1401C136.819 75.6794 128.345 67.1994 117.892 67.1994C107.439 67.1994 98.9651 75.6794 98.9651 86.1401C98.9651 96.6008 107.439 105.081 117.892 105.081Z" fill="white"/>
<path d="M134.987 86.1401C134.987 89.6685 133.896 93.1104 131.865 95.9946C129.834 98.8789 126.962 101.064 123.642 102.252C120.322 103.44 116.716 103.571 113.319 102.629C109.921 101.687 106.897 99.7162 104.662 96.9877C104.15 96.3609 103.684 95.6981 103.267 95.0043C102.832 94.2762 102.443 93.5216 102.103 92.7449C101.757 91.8938 101.476 91.0179 101.262 90.1244C101.053 89.3067 100.917 88.4721 100.854 87.6304C100.549 84.088 101.351 80.5382 103.15 77.4722C104.949 74.4061 107.656 71.9752 110.896 70.5158C113.303 69.4385 115.926 68.9322 118.561 69.0365C121.195 69.1408 123.771 69.8527 126.085 71.1169C128.4 72.381 130.391 74.1631 131.904 76.3242C133.417 78.4854 134.411 80.967 134.808 83.5757C134.846 83.8132 134.847 83.824 134.858 83.9164C134.887 84.1603 134.911 84.4048 134.929 84.6499C134.968 85.1459 134.984 85.6427 134.987 86.1401C135 88.4983 138.664 88.5034 138.65 86.1401C138.663 80.7641 136.599 75.5911 132.889 71.7028C129.179 67.8146 124.111 65.5119 118.744 65.2764C113.377 65.0409 108.127 66.8906 104.091 70.439C100.055 73.9874 97.5463 78.9596 97.0888 84.3161C96.6314 89.6727 98.2608 94.9988 101.636 99.1811C105.012 103.363 109.872 106.078 115.201 106.757C120.531 107.436 125.916 106.028 130.231 102.826C134.547 99.6239 137.458 94.8765 138.357 89.5763C138.54 88.4398 138.639 87.2912 138.65 86.1401C138.663 83.7807 135 83.778 134.987 86.1401Z" fill="#F2F2F2"/>
<path d="M126.083 80.893L126.081 80.8885C126.853 80.423 127.43 79.6935 127.706 78.835C126.994 79.2583 126.216 79.5594 125.404 79.7257C125.014 79.2066 124.508 78.7857 123.927 78.4966C123.346 78.2076 122.705 78.0583 122.056 78.0607C120.882 78.061 119.756 78.5279 118.926 79.3589C118.096 80.1899 117.629 81.3168 117.63 82.4917L117.63 82.5531C115.152 82.2138 112.895 80.9444 111.317 79.002C111.227 78.8922 111.107 78.8117 110.971 78.771C110.836 78.7304 110.691 78.7313 110.556 78.7739C110.462 78.7862 110.373 78.8191 110.294 78.8703C110.215 78.9215 110.148 78.9896 110.098 79.0698C109.73 79.7595 109.566 80.5407 109.628 81.3205C109.627 82.0187 109.794 82.7067 110.115 83.3266C109.97 83.3544 109.838 83.4321 109.744 83.5464C109.649 83.6607 109.598 83.8044 109.598 83.9527V84.0007C109.597 84.6203 109.729 85.2329 109.984 85.7975C110.239 86.362 110.612 86.8655 111.077 87.2742L111.061 87.2913C110.988 87.3741 110.938 87.4745 110.915 87.5827C110.892 87.6909 110.898 87.8031 110.932 87.9083C111.121 88.4952 111.432 89.0355 111.844 89.4936C112.256 89.9518 112.761 90.3175 113.324 90.5667C112.147 91.0622 110.859 91.2363 109.592 91.071C109.47 91.0567 109.347 91.0777 109.237 91.1316C109.127 91.1855 109.035 91.2699 108.971 91.3748C108.949 91.4006 108.929 91.4279 108.91 91.4566C108.86 91.5349 108.826 91.6223 108.809 91.7139C108.793 91.8055 108.795 91.8993 108.815 91.9902C108.834 92.0811 108.872 92.1672 108.925 92.2435C108.978 92.3199 109.046 92.3851 109.124 92.4353C110.938 93.6023 113.049 94.2217 115.206 94.2195C122.519 94.2195 126.495 88.1454 126.495 82.9231C126.495 82.6716 126.476 82.4204 126.439 82.1716C127.129 81.6567 127.726 81.0275 128.205 80.3112L128.207 80.3089C127.532 80.6078 126.816 80.8047 126.083 80.893Z" fill="#49C98A"/>
<path d="M118.502 39.7048C128.955 39.7048 137.429 31.2247 137.429 20.764C137.429 10.3034 128.955 1.82332 118.502 1.82332C108.049 1.82332 99.5754 10.3034 99.5754 20.764C99.5754 31.2247 108.049 39.7048 118.502 39.7048Z" fill="white"/>
<path d="M135.598 20.764C135.597 24.2924 134.507 27.7343 132.476 30.6186C130.445 33.5028 127.573 35.6884 124.253 36.876C120.933 38.0636 117.327 38.1952 113.929 37.2529C110.532 36.3105 107.508 34.3402 105.272 31.6117C104.761 30.9849 104.294 30.322 103.878 29.6282C103.443 28.9001 103.054 28.1455 102.713 27.3688C102.367 26.5178 102.086 25.6418 101.873 24.7484C101.664 23.9306 101.527 23.096 101.465 22.2543C101.16 18.7119 101.962 15.1622 103.761 12.0961C105.56 9.03001 108.266 6.59912 111.506 5.1397C113.913 4.06242 116.536 3.55617 119.171 3.66043C121.806 3.7647 124.381 4.47666 126.696 5.74079C129.01 7.00492 131.002 8.78704 132.515 10.9482C134.028 13.1093 135.022 15.591 135.418 18.1997C135.457 18.4371 135.457 18.4479 135.468 18.5404C135.497 18.7843 135.521 19.0288 135.54 19.2738C135.579 19.7698 135.595 20.2667 135.598 20.7641C135.611 23.1223 139.274 23.1273 139.261 20.7641C139.274 15.388 137.21 10.2151 133.5 6.32678C129.79 2.43849 124.722 0.135871 119.355 -0.0996666C113.988 -0.335205 108.737 1.51458 104.702 5.06294C100.666 8.6113 98.1569 13.5835 97.6994 18.9401C97.242 24.2966 98.8714 29.6228 102.247 33.805C105.623 37.9872 110.483 40.7017 115.812 41.381C121.141 42.0603 126.526 40.6517 130.842 37.4498C135.157 34.2479 138.069 29.5005 138.968 24.2002C139.151 23.0638 139.249 21.9152 139.261 20.7641C139.274 18.4047 135.611 18.4019 135.598 20.764Z" fill="#F2F2F2"/>
<path d="M122.737 22.7648L123.316 18.9891H119.7C119.578 15.8449 119.456 14.0812 123.469 14.5036V11.2941C117.459 9.97018 114.952 13.0186 115.627 18.9891H112.315V22.7648H115.627V31.5126C116.964 31.8358 118.358 31.8449 119.7 31.5389V22.7648H122.737Z" fill="#49C98A"/>
<path d="M45.237 106.914C55.69 106.914 64.1639 98.4337 64.1639 87.9731C64.1639 77.5124 55.69 69.0323 45.237 69.0323C34.7839 69.0323 26.3101 77.5124 26.3101 87.9731C26.3101 98.4337 34.7839 106.914 45.237 106.914Z" fill="white"/>
<path d="M62.3324 87.9731C62.3317 91.5014 61.2413 94.9434 59.2104 97.8276C57.1796 100.712 54.3075 102.897 50.9874 104.085C47.6673 105.273 44.0616 105.404 40.6639 104.462C37.2662 103.519 34.2426 101.549 32.0071 98.8207C31.4952 98.1939 31.0291 97.5311 30.6124 96.8373C30.1775 96.1092 29.7886 95.3545 29.4478 94.5779C29.1021 93.7268 28.8211 92.8508 28.6072 91.9574C28.3982 91.1397 28.2618 90.3051 28.1995 89.4633C27.8943 85.921 28.6966 82.3712 30.4955 79.3051C32.2944 76.239 35.0009 73.8081 38.2407 72.3487C40.6478 71.2714 43.2711 70.7652 45.9059 70.8695C48.5407 70.9737 51.1158 71.6857 53.4303 72.9498C55.7449 74.214 57.7364 75.9961 59.2494 78.1572C60.7625 80.3183 61.7562 82.8 62.1531 85.4087C62.1915 85.6461 62.192 85.657 62.203 85.7494C62.232 85.9933 62.2559 86.2378 62.2746 86.4828C62.3132 86.9788 62.3296 87.4757 62.3324 87.9731C62.3454 90.3313 66.0087 90.3364 65.9956 87.9731C66.0085 82.597 63.9442 77.4241 60.2343 73.5358C56.5244 69.6475 51.4562 67.3449 46.0892 67.1094C40.7222 66.8738 35.472 68.7236 31.4362 72.272C27.4004 75.8203 24.8915 80.7926 24.4341 86.1491C23.9766 91.5057 25.606 96.8318 28.9816 101.014C32.3571 105.196 37.2176 107.911 42.5467 108.59C47.8758 109.269 53.261 107.861 57.5764 104.659C61.8918 101.457 64.8033 96.7095 65.7022 91.4092C65.8856 90.2728 65.9837 89.1242 65.9956 87.9731C66.0087 85.6137 62.3455 85.6109 62.3324 87.9731Z" fill="#F2F2F2"/>
<path d="M45.6883 97.205C44.9725 97.205 44.2672 97.1842 43.5967 97.1642C42.7885 97.14 42.0253 97.1179 41.3763 97.1361C40.6757 97.1737 39.9749 97.0659 39.318 96.8194C38.661 96.5729 38.0621 96.1931 37.5589 95.7038C35.5493 93.6307 35.6629 89.7863 35.7544 86.6971C35.7782 85.8883 35.8009 85.1243 35.7824 84.4751C35.7449 83.774 35.8527 83.0728 36.099 82.4154C36.3453 81.758 36.7248 81.1587 37.2137 80.6552C39.2856 78.6441 43.1278 78.7587 46.2142 78.8491C47.0227 78.8729 47.7861 78.8962 48.4345 78.8771L48.4524 78.8768C49.1501 78.841 49.8477 78.9498 50.5014 79.1963C51.1552 79.4428 51.751 79.8218 52.2517 80.3094C54.2616 82.3825 54.1477 86.2269 54.0562 89.3162C54.0323 90.125 54.0097 90.889 54.0281 91.5382C54.0656 92.2393 53.9579 92.9406 53.7116 93.598C53.4652 94.2554 53.0857 94.8547 52.5969 95.3584C50.9751 96.9327 48.2682 97.205 45.6883 97.205Z" fill="#49C98A"/>
<path d="M49.5163 84.4572C49.2397 84.4491 48.9772 84.3333 48.7847 84.1344C48.5921 83.9355 48.4847 83.6693 48.4854 83.3924C48.486 83.1155 48.5945 82.8497 48.7879 82.6517C48.9814 82.4537 49.2443 82.339 49.521 82.3321C49.7975 82.3402 50.06 82.4561 50.2526 82.6549C50.4451 82.8538 50.5525 83.12 50.5519 83.3969C50.5513 83.6738 50.4427 83.9396 50.2493 84.1376C50.0559 84.3356 49.7929 84.4503 49.5163 84.4572Z" fill="#E6E6E6"/>
<path d="M44.9054 92.6157C43.9945 92.6158 43.1041 92.3455 42.3467 91.8391C41.5893 91.3327 40.999 90.6129 40.6504 89.7708C40.3018 88.9286 40.2106 88.0019 40.3883 87.1079C40.5659 86.2139 41.0046 85.3927 41.6486 84.7481C42.2927 84.1035 43.1133 83.6645 44.0067 83.4867C44.9 83.3088 45.826 83.4001 46.6676 83.7489C47.5091 84.0977 48.2284 84.6884 48.7345 85.4463C49.2406 86.2042 49.5107 87.0952 49.5108 88.0068C49.5094 89.2287 49.0238 90.4002 48.1604 91.2642C47.297 92.1283 46.1264 92.6143 44.9054 92.6157ZM44.9054 84.6201C44.236 84.62 43.5817 84.8187 43.0251 85.1908C42.4685 85.5629 42.0347 86.0919 41.7785 86.7108C41.5224 87.3296 41.4553 88.0106 41.5859 88.6676C41.7165 89.3246 42.0388 89.9281 42.5122 90.4018C42.9855 90.8754 43.5885 91.198 44.245 91.3287C44.9016 91.4594 45.5821 91.3923 46.2005 91.1359C46.8189 90.8796 47.3475 90.4455 47.7193 89.8885C48.0912 89.3315 48.2897 88.6766 48.2897 88.0068C48.2886 87.1089 47.9318 86.2481 47.2973 85.6131C46.6629 84.9782 45.8027 84.6211 44.9054 84.6201Z" fill="#E6E6E6"/>
</g>
<defs>
<clipPath id="clip0_319_2">
<rect width="382" height="372" fill="white"/>
</clipPath>
</defs>
</svg>
